<?xml version="1.0" standalone="no"?>
<!DOCTYPE svg PUBLIC "-//W3C//DTD SVG 20010904//EN"
 "http://www.w3.org/TR/2001/REC-SVG-20010904/DTD/svg10.dtd">
<svg version="1.0" xmlns="http://www.w3.org/2000/svg"
 width="32.000000pt" height="32.000000pt" viewBox="0 0 32.000000 32.000000"
 preserveAspectRatio="xMidYMid meet">

<g transform="translate(0.000000,32.000000) scale(0.100000,-0.100000)"
fill="#000000" stroke="none">
<path d="M105 285 c-48 -47 -27 -104 54 -147 26 -15 32 -23 29 -45 -4 -34 -40
-43 -69 -17 -19 17 -20 17 -37 0 -16 -16 -16 -19 11 -42 47 -40 117 -32 142
17 33 62 14 111 -51 139 -31 14 -44 25 -44 39 l0 21 36 -21 c20 -11 38 -18 41
-15 3 2 -4 25 -16 50 -16 38 -25 46 -46 46 -14 0 -37 -11 -50 -25z"/>
</g>
</svg>
